HIERARCHY
ROOT Hips
{
	OFFSET -3.958830 18.904000 13.208200
	CHANNELS 6 Xposition Yposition Zposition Zrotation Yrotation Xrotation 
	JOINT LHipJoint
	{
		OFFSET 0.000000 0.000000 0.000000
		CHANNELS 3 Zrotation Yrotation Xrotation
		JOINT LeftUpLeg
		{
			OFFSET 1.800000 -1.400000 0.085000
			CHANNELS 3 Zrotation Yrotation Xrotation
			JOINT LeftLeg
			{
				OFFSET 2.215000 -6.000000 0.000000
				CHANNELS 3 Zrotation Yrotation Xrotation
				JOINT LeftFoot
				{
					OFFSET 2.500000 -6.900000 0.000000
					CHANNELS 3 Zrotation Yrotation Xrotation
					JOINT LeftToeBase
					{
						OFFSET 0.200000 -0.500000 1.950000
						CHANNELS 3 Zrotation Yrotation Xrotation
						End Site
						{
							OFFSET 0.000000 0.000000 0.000000
						}
					}
				}
			}
		}
	}
	JOINT RHipJoint
	{
		OFFSET 0.000000 0.000000 0.000000
		CHANNELS 3 Zrotation Yrotation Xrotation
		JOINT RightUpLeg
		{
			OFFSET -1.800000 -1.400000 0.085000
			CHANNELS 3 Zrotation Yrotation Xrotation
			JOINT RightLeg
			{
				OFFSET -2.215000 -6.000000 0.000000
				CHANNELS 3 Zrotation Yrotation Xrotation
				JOINT RightFoot
				{
					OFFSET -2.500000 -6.900000 0.000000
					CHANNELS 3 Zrotation Yrotation Xrotation
					JOINT RightToeBase
					{
						OFFSET -0.200000 -0.500000 1.950000
						CHANNELS 3 Zrotation Yrotation Xrotation
						End Site
						{
							OFFSET 0.000000 0.000000 0.000000
						}
					}
				}
			}
		}
	}
	JOINT LowerBack
	{
		OFFSET 0.000000 0.000000 0.000000
		CHANNELS 3 Zrotation Yrotation Xrotation
		JOINT Spine
		{
			OFFSET -0.087000 1.940000 -0.288900
			CHANNELS 3 Zrotation Yrotation Xrotation
			JOINT Spine1
			{
				OFFSET 0.000000 1.950000 0.060000
				CHANNELS 3 Zrotation Yrotation Xrotation
				JOINT Neck
				{
					OFFSET 0.000000 0.000000 0.000000
					CHANNELS 3 Zrotation Yrotation Xrotation
					JOINT Neck1
					{
						OFFSET 0.000000 1.600000 0.340000
						CHANNELS 3 Zrotation Yrotation Xrotation
						JOINT Head
						{
							OFFSET 0.000000 1.667000 -0.240000
							CHANNELS 3 Zrotation Yrotation Xrotation
							End Site
							{
								OFFSET 0.000000 0.000000 0.000000
							}
						}
					}
				}
				JOINT LeftShoulder
				{
					OFFSET 0.000000 0.000000 0.000000
					CHANNELS 3 Zrotation Yrotation Xrotation
					JOINT LeftArm
					{
						OFFSET 2.700000 1.550000 -0.730000
						CHANNELS 3 Zrotation Yrotation Xrotation
						JOINT LeftForeArm
						{
							OFFSET 5.450000 0.000000 0.000000
							CHANNELS 3 Zrotation Yrotation Xrotation
							JOINT LeftHand
							{
								OFFSET 3.450000 0.000000 0.000000
								CHANNELS 3 Zrotation Yrotation Xrotation
								JOINT LeftHandIndex1
								{
									OFFSET 0.750000 0.000000 0.000000
									CHANNELS 3 Zrotation Yrotation Xrotation
									End Site
									{
										OFFSET 0.000000 0.000000 0.000000
									}
								}
							}
						}
					}
				}
				JOINT RightShoulder
				{
					OFFSET 0.000000 0.000000 0.000000
					CHANNELS 3 Zrotation Yrotation Xrotation
					JOINT RightArm
					{
						OFFSET -2.700000 1.550000 -0.730000
						CHANNELS 3 Zrotation Yrotation Xrotation
						JOINT RightForeArm
						{
							OFFSET -5.450000 0.000000 0.000000
							CHANNELS 3 Zrotation Yrotation Xrotation
							JOINT RightHand
							{
								OFFSET -3.450000 0.000000 0.000000
								CHANNELS 3 Zrotation Yrotation Xrotation
								JOINT RightHandIndex1
								{
									OFFSET -0.750000 0.000000 0.000000
									CHANNELS 3 Zrotation Yrotation Xrotation
									End Site
									{
										OFFSET 0.000000 0.000000 0.000000
									}
								}
							}
						}
					}
				}
			}
		}
	}
}
MOTION
Frames: 10
Frame Time: 0.016667
2.217910 16.336940 -3.504590 1.532876 -14.697832 2.156124 -15.262755 11.976004 2.645555 21.663745 -3.386202 -22.483466 -7.899872 12.785332 38.432156 -0.645440 8.913735 1.532786 -0.087220 -0.529240 -0.420520 18.641517 -7.346859 5.950162 -23.372651 9.648997 -52.185483 43.066021 -28.018325 42.071803 -2.004228 -10.953748 1.212033 -0.183970 0.855410 0.026910 -4.126491 -3.577334 -9.060835 15.153020 -11.174231 33.520680 -9.446323 -5.829657 0.224219 3.038795 -12.003340 -13.009766 -28.713752 15.023778 30.137195 -6.681070 4.473440 -19.694640 -19.554874 -10.765283 4.269251 -28.864267 4.611819 -8.982358 -26.851691 -44.357980 6.130883 -3.774332 2.519756 1.137150 0.249770 -0.312450 0.292920 14.213969 17.210870 9.152345 37.079226 0.635515 -10.575041 82.354588 48.552173 30.331158 1.623491 -1.169108 -0.788400 0.928010 0.634070 -0.293100 
2.231360 16.306180 -3.516740 1.502199 -14.543471 0.224027 -15.260091 12.010927 2.509432 21.974369 -3.311492 -20.798341 -7.673247 12.893420 38.941569 -0.651468 8.998089 1.491472 -0.058680 -0.531450 -0.340460 18.645164 -7.233128 6.179927 -26.638246 8.863129 -52.514252 47.562206 -29.877689 41.255996 -2.139768 -11.254791 1.121988 -0.175610 0.770560 -0.014490 -4.120237 -3.632301 -9.170692 15.333885 -11.595021 36.582424 -9.928975 -5.853220 -1.578024 3.531160 -11.517610 -13.438132 -28.592785 15.328075 32.719348 -7.662170 4.712550 -20.024100 -22.454598 -13.115611 4.429495 -29.471184 2.776638 -8.066121 -15.945814 -37.062082 1.738918 -3.688471 2.392528 1.199230 0.188980 -0.285970 0.265550 16.105860 19.326444 9.590115 38.052140 1.776715 -10.656507 83.987121 49.569093 31.830837 1.678778 -1.135406 -0.816180 0.921760 0.606930 -0.348160 
2.258270 16.304560 -3.541120 1.228562 -14.845329 -2.339554 -15.254014 11.936255 2.456357 22.771999 -3.000441 -19.260055 -8.133601 13.791252 40.636372 -0.539530 9.382171 1.311616 0.018120 -0.447610 -0.239240 18.666670 -7.094143 6.409724 -31.385396 8.120420 -51.917669 54.566263 -31.364396 38.463197 -2.300640 -11.316418 1.076797 -0.159450 0.632810 -0.000450 -4.167519 -3.516980 -9.324099 16.340474 -12.043747 40.612518 -11.202132 -5.474379 -2.771795 4.388517 -10.586943 -14.554104 -28.419820 16.263806 37.399822 -8.884420 4.892950 -22.571670 -26.151785 -16.850511 5.240622 -31.053829 0.342569 -6.338274 -1.559221 -26.510410 -1.841008 -3.612796 2.262333 1.269350 0.092650 -0.173790 0.241130 18.029943 22.878361 10.101722 41.626554 4.677465 -11.348508 84.264472 53.524285 34.385511 1.791552 -1.047489 -0.762240 0.888290 0.560380 -0.371630 
2.265690 16.341270 -3.558220 1.337230 -14.771115 -4.791018 -15.223405 11.970667 2.281128 22.539088 -2.291236 -18.127676 -6.964199 13.920249 42.263661 -0.538754 9.492829 1.210115 0.148020 -0.299300 -0.128730 18.704816 -7.073035 6.574047 -36.385490 7.605226 -50.029313 61.752174 -31.121681 34.046761 -2.367352 -11.040161 1.117300 -0.080870 0.495540 -0.011930 -4.264806 -3.355832 -9.306691 18.350664 -12.610928 42.569179 -12.207289 -5.027335 -0.891229 4.986635 -10.327270 -16.783576 -31.776944 19.085790 41.390678 -9.375030 4.287730 -24.908060 -29.317202 -21.757546 7.007895 -31.878819 -1.379626 -4.425177 7.000372 -17.599734 -2.723513 -3.563366 2.212883 1.335300 -0.009310 -0.078330 0.223980 20.158773 27.995586 10.827215 43.923920 9.289934 -11.957931 84.341766 62.138172 39.858539 1.955613 -0.828249 -0.714660 0.894400 0.514320 -0.395660 
2.231560 16.381630 -3.578350 0.400472 -16.615800 -6.082006 -15.188465 11.933883 2.203460 24.169024 -0.516462 -16.984485 -6.646030 14.792454 42.768598 -0.508743 9.750766 1.094935 0.223580 -0.220870 -0.050060 18.740323 -7.127370 6.625523 -38.854954 9.380921 -48.345081 66.336211 -29.122676 30.217383 -2.357380 -10.645376 1.215051 -0.025310 0.443690 -0.028180 -4.417834 -2.909466 -9.257743 21.642138 -12.620039 43.182785 -13.497680 -3.516072 1.535220 5.484090 -10.080970 -18.798336 -34.605776 21.777682 44.695087 -10.185780 3.675790 -25.462710 -32.190726 -25.324178 8.638805 -31.253809 -0.435478 -4.074181 10.291590 -15.075134 -2.879537 -3.522778 2.177486 1.373380 -0.053490 -0.028080 0.221440 22.137534 32.357469 11.355678 43.552609 14.627166 -10.928350 89.815339 68.159303 47.706136 2.183772 -0.435248 -0.708050 0.945360 0.488350 -0.407270 
2.198370 16.426800 -3.566300 -0.322040 -16.870555 -8.060868 -15.121076 12.178238 1.930613 24.319931 0.971031 -15.001588 -4.106817 14.116774 43.049476 -0.634037 9.659138 1.088722 0.179880 -0.296470 -0.021650 18.749616 -7.421973 6.576093 -40.555931 10.599684 -44.312624 68.635721 -27.212963 27.328369 -2.309071 -10.293174 1.253455 -0.045440 0.418400 -0.011680 -4.504491 -2.602667 -9.048494 24.808633 -12.887457 43.307281 -15.090253 -2.818692 4.440619 6.538603 -9.474710 -20.522748 -35.694435 24.390793 49.033743 -13.136260 3.414230 -27.834420 -32.175434 -28.044558 10.373950 -31.670128 0.972690 -4.185987 11.913919 -15.684556 -3.230394 -3.517781 2.080811 1.472660 -0.083210 0.016650 0.144650 20.077378 35.802523 11.419785 44.739314 21.902024 -9.612513 97.214361 73.657627 57.656910 2.640095 0.649464 -0.751360 1.013860 0.586860 -0.450730 
2.130070 16.477770 -3.551610 -0.387780 -15.741362 -9.758176 -15.036002 12.518806 1.652057 23.382839 1.849388 -13.582203 -0.877288 12.530038 42.645864 -0.731271 9.143700 1.218832 0.195210 -0.276990 0.034980 18.739618 -7.842005 6.441998 -41.002199 11.225932 -39.030367 67.973831 -24.985392 25.204685 -2.201214 -9.929666 1.304908 -0.045560 0.322690 -0.030710 -4.534553 -2.395286 -8.804434 26.711013 -12.624723 42.557313 -16.037875 -2.483312 7.252043 7.378187 -8.898239 -21.940405 -35.365247 25.600589 53.450188 -14.489680 3.268070 -28.219360 -30.957377 -29.992442 12.068127 -31.294792 3.066770 -4.849519 11.903130 -19.171996 -3.615679 -3.411395 2.121974 1.488280 -0.129990 0.044400 0.072920 17.270525 38.419735 11.536019 44.930076 28.776515 -8.822732 99.836481 79.587859 66.016845 3.359343 2.708544 -0.722640 0.980250 0.596090 -0.483130 
2.016590 16.486070 -3.543630 0.217044 -14.591862 -9.891261 -14.977354 12.690823 1.535282 22.121161 2.289073 -13.997083 1.192305 11.541221 42.425204 -0.839970 8.940255 1.302889 0.043600 -0.479710 -0.034190 18.735981 -8.169145 6.295096 -40.685348 11.387564 -35.634226 65.223627 -23.442122 24.285559 -2.018038 -9.719988 1.340231 -0.125290 0.419020 -0.025830 -4.562870 -2.207132 -8.652796 26.579100 -10.691810 40.025742 -15.774553 -1.753759 9.080340 7.419431 -8.875730 -21.812210 -33.500580 26.004140 54.389771 -15.831620 5.260860 -24.962320 -28.725439 -29.519076 12.826619 -30.284547 5.468874 -5.976506 9.946269 -25.693023 -4.194057 -3.468083 2.109748 1.482200 -0.043420 -0.044030 0.010350 14.960724 38.262143 11.471526 45.771834 34.607155 -5.544205 94.778544 86.443936 72.272174 3.781195 5.556307 -0.807510 0.987850 0.712660 -0.517190 
1.876080 16.519750 -3.523940 0.745400 -13.217014 -10.293598 -14.887067 12.968917 1.373157 20.533026 2.623437 -13.609862 4.058390 9.755281 40.940454 -0.932508 8.351661 1.541030 -0.029270 -0.573890 -0.086060 18.714906 -8.657602 6.109273 -38.917676 11.456835 -31.412642 61.593616 -21.814867 23.509468 -1.854024 -9.478331 1.409539 -0.173170 0.476080 -0.027700 -4.596769 -1.932407 -8.527639 25.959717 -8.165331 37.923994 -14.350155 -0.666268 10.719241 7.275407 -9.183650 -21.598892 -31.993065 26.271195 55.199420 -15.970330 7.302320 -21.984850 -25.819081 -29.212325 13.574260 -28.615678 7.452185 -7.043639 4.560121 -32.975466 -3.896086 -3.446424 2.183162 1.449470 0.014110 -0.105860 0.000530 12.700081 39.368883 11.815293 44.177410 36.302137 -10.447553 152.750068 83.012529 140.005055 1.098576 0.351683 -0.835520 0.962120 0.747740 -0.524310 
1.710110 16.565380 -3.513590 1.258286 -12.672371 -9.897751 -14.891590 13.229882 1.330351 19.479135 2.988477 -14.162543 5.948942 8.707565 39.777346 -0.965819 7.973790 1.703000 -0.092310 -0.658210 -0.141680 18.630854 -8.886191 5.905775 -36.513018 11.725142 -28.494886 58.591753 -20.329722 22.738164 -1.729001 -9.204408 1.514429 -0.232810 0.532510 -0.024170 -4.440462 -2.054482 -8.442747 23.914450 -5.055112 36.325807 -12.092261 1.142499 10.975793 6.822889 -9.063694 -21.373070 -30.810729 26.116078 56.589118 -15.109690 8.668390 -19.994370 -22.800599 -26.803319 12.759817 -26.385293 7.874025 -7.327233 -1.441873 -38.681908 -2.626503 -3.485661 2.188817 1.443490 0.049200 -0.142850 0.007940 10.659078 37.187875 12.399126 42.163145 39.376694 0.413362 -130.827861 76.832479 -140.323346 1.439624 -0.646127 -0.854220 0.949130 0.773410 -0.519900 
